<svg width="1308" height="265" viewBox="0 0 1308 265" fill="none" xmlns="http://www.w3.org/2000/svg">
<path d="M14.996 264.362C8.476 260.885 4.34667 257.299 2.608 253.604C0.869333 249.909 0 246.758 0 244.15C0 238.282 2.06467 230.458 6.194 220.678C10.5407 210.681 16.3 199.271 23.472 186.448C30.644 173.625 38.794 160.259 47.922 146.35C41.1847 145.915 34.7733 145.589 28.688 145.372C22.6027 145.155 14.7787 145.046 5.216 145.046H0C3.04267 137.222 7.824 131.789 14.344 128.746C21.0813 125.486 28.9053 123.856 37.816 123.856C41.5107 123.856 45.314 124.073 49.226 124.508C53.3553 124.943 57.5933 125.377 61.94 125.812C72.8067 110.164 83.456 95.3853 93.888 81.476C104.537 67.5667 114.535 55.07 123.88 43.986C133.443 32.6847 141.919 23.448 149.308 16.276C159.74 5.84398 167.347 0.62798 172.128 0.62798C175.171 0.62798 178.539 1.82332 182.234 4.21399C186.146 6.60465 190.167 9.64732 194.296 13.342C192.123 15.0807 189.297 19.536 185.82 26.708C182.56 33.88 178.974 43.008 175.062 54.092C171.367 64.9587 167.564 76.912 163.652 89.952C159.957 102.992 156.589 116.249 153.546 129.724C150.503 143.199 148.004 156.13 146.048 168.518C144.309 180.689 143.44 191.447 143.44 200.792C143.44 209.485 144.309 216.005 146.048 220.352C147.787 224.481 150.721 226.546 154.85 226.546C159.849 226.546 166.043 222.743 173.432 215.136C180.821 207.529 189.08 195.141 198.208 177.972L204.076 184.166C197.339 201.987 188.537 216.657 177.67 228.176C167.021 239.695 155.611 245.454 143.44 245.454C133.008 245.454 125.619 240.999 121.272 232.088C116.925 222.96 114.752 210.572 114.752 194.924C114.752 189.925 115.078 184.275 115.73 177.972C116.382 171.669 117.469 163.845 118.99 154.5C109.427 152.979 100.951 151.783 93.562 150.914C86.1727 150.045 79.1093 149.175 72.372 148.306C61.94 166.779 51.834 185.905 42.054 205.682C32.274 225.459 23.2547 245.019 14.996 264.362ZM122.25 138.526C125.075 125.703 128.335 112.772 132.03 99.732C135.942 86.4747 139.963 73.8693 144.092 61.916C148.439 49.7453 152.677 38.8787 156.806 29.316C150.286 34.532 143.005 42.03 134.964 51.81C126.923 61.59 118.447 73.1087 109.536 86.366C100.843 99.6233 91.932 114.076 82.804 129.724C89.324 131.028 95.844 132.441 102.364 133.962C108.884 135.483 115.513 137.005 122.25 138.526ZM225.943 254.256C214.642 254.256 205.297 250.67 197.907 243.498C190.735 236.543 187.149 225.785 187.149 211.224C187.149 200.575 189.214 190.143 193.343 179.928C197.473 169.713 203.015 160.585 209.969 152.544C216.924 144.285 224.639 137.765 233.115 132.984C241.809 128.203 250.611 125.812 259.521 125.812C268.649 125.812 275.169 128.094 279.081 132.658C283.211 137.222 285.275 142.547 285.275 148.632C285.275 154.717 283.754 160.694 280.711 166.562C277.886 172.213 273.974 175.038 268.975 175.038C264.846 175.038 261.477 172.973 258.869 168.844C261.043 167.323 263.325 164.497 265.715 160.368C268.106 156.239 269.301 150.914 269.301 144.394C269.301 142.655 268.867 141.351 267.997 140.482C267.128 139.395 265.498 138.852 263.107 138.852C257.674 138.852 251.915 141.351 245.829 146.35C239.961 151.131 234.419 157.434 229.203 165.258C224.205 172.865 220.075 181.015 216.815 189.708C213.773 198.184 212.251 206.008 212.251 213.18C212.251 219.265 213.773 224.916 216.815 230.132C220.075 235.131 226.269 237.63 235.397 237.63C243.656 237.63 252.241 235.239 261.151 230.458C270.062 225.677 278.429 219.048 286.253 210.572C294.077 201.879 300.38 191.555 305.161 179.602L311.681 185.47C306.465 198.727 299.185 210.572 289.839 221.004C280.711 231.219 270.497 239.26 259.195 245.128C248.111 251.213 237.027 254.256 225.943 254.256ZM334.504 254.256C323.203 254.256 313.857 250.67 306.468 243.498C299.296 236.543 295.71 225.785 295.71 211.224C295.71 200.575 297.775 190.143 301.904 179.928C306.033 169.713 311.575 160.585 318.53 152.544C325.485 144.285 333.2 137.765 341.676 132.984C350.369 128.203 359.171 125.812 368.082 125.812C377.21 125.812 383.73 128.094 387.642 132.658C391.771 137.222 393.836 142.547 393.836 148.632C393.836 154.717 392.315 160.694 389.272 166.562C386.447 172.213 382.535 175.038 377.536 175.038C373.407 175.038 370.038 172.973 367.43 168.844C369.603 167.323 371.885 164.497 374.276 160.368C376.667 156.239 377.862 150.914 377.862 144.394C377.862 142.655 377.427 141.351 376.558 140.482C375.689 139.395 374.059 138.852 371.668 138.852C366.235 138.852 360.475 141.351 354.39 146.35C348.522 151.131 342.98 157.434 337.764 165.258C332.765 172.865 328.636 181.015 325.376 189.708C322.333 198.184 320.812 206.008 320.812 213.18C320.812 219.265 322.333 224.916 325.376 230.132C328.636 235.131 334.83 237.63 343.958 237.63C352.217 237.63 360.801 235.239 369.712 230.458C378.623 225.677 386.99 219.048 394.814 210.572C402.638 201.879 408.941 191.555 413.722 179.602L420.242 185.47C415.026 198.727 407.745 210.572 398.4 221.004C389.272 231.219 379.057 239.26 367.756 245.128C356.672 251.213 345.588 254.256 334.504 254.256ZM444.043 250.344C430.133 250.344 419.375 246.541 411.769 238.934C404.379 231.545 400.685 222.199 400.685 210.898C400.685 201.335 403.075 191.229 407.857 180.58C412.855 169.713 419.484 159.607 427.743 150.262C436.001 140.699 445.129 132.984 455.127 127.116C465.124 121.248 475.121 118.314 485.119 118.314C490.769 118.314 496.094 119.835 501.093 122.878C506.309 125.703 508.917 131.463 508.917 140.156C508.917 148.415 506.526 156.13 501.745 163.302C496.963 170.474 490.552 176.885 482.511 182.536C474.469 188.187 465.559 192.859 455.779 196.554C446.216 200.031 436.545 202.313 426.765 203.4C426.547 204.269 426.33 205.247 426.113 206.334C426.113 207.203 426.113 208.725 426.113 210.898C426.113 211.985 426.221 213.941 426.439 216.766C426.873 219.374 427.851 222.199 429.373 225.242C430.894 228.285 433.393 230.893 436.871 233.066C440.348 235.239 445.129 236.326 451.215 236.326C460.343 236.326 469.471 233.827 478.599 228.828C487.944 223.612 496.637 216.766 504.679 208.29C512.937 199.814 519.783 190.36 525.217 179.928L531.737 185.144C525.869 198.184 518.262 209.594 508.917 219.374C499.789 229.154 489.574 236.761 478.273 242.194C467.189 247.627 455.779 250.344 444.043 250.344ZM430.351 191.338C436.001 190.686 442.304 188.73 449.259 185.47C456.213 182.21 462.842 178.081 469.145 173.082C475.665 168.083 480.989 162.65 485.119 156.782C489.248 150.697 491.313 144.611 491.313 138.526C491.313 136.135 490.878 134.505 490.009 133.636C489.139 132.767 487.727 132.332 485.771 132.332C480.772 132.332 475.556 134.179 470.123 137.874C464.689 141.351 459.365 146.024 454.149 151.892C448.933 157.543 444.26 163.845 440.131 170.8C436.001 177.755 432.741 184.601 430.351 191.338ZM555.476 252.626C544.609 252.626 535.807 250.344 529.07 245.78C522.55 241.433 517.877 235.891 515.052 229.154C512.227 222.199 510.814 215.136 510.814 207.964C510.814 201.661 511.683 196.771 513.422 193.294C515.161 189.817 517.334 187.317 519.942 185.796C522.55 184.057 524.941 182.753 527.114 181.884C529.505 181.015 531.243 180.037 532.33 178.95C537.763 173.299 543.305 166.779 548.956 159.39C554.824 151.783 559.823 143.416 563.952 134.288V131.028C563.952 122.335 565.365 116.249 568.19 112.772C571.233 109.077 574.71 107.23 578.622 107.23C581.23 107.23 583.077 107.882 584.164 109.186C585.468 110.49 586.229 112.011 586.446 113.75C586.446 115.054 586.12 116.575 585.468 118.314C585.033 120.053 584.816 122.443 584.816 125.486C584.816 132.006 586.337 139.504 589.38 147.98C592.64 156.239 595.791 165.041 598.834 174.386C602.094 183.731 603.724 193.294 603.724 203.074C603.724 205.682 603.615 208.073 603.398 210.246C603.181 212.419 602.855 214.484 602.42 216.44C609.157 214.701 615.786 211.007 622.306 205.356C628.826 199.488 635.02 190.903 640.888 179.602L644.8 182.536C640.671 194.924 634.694 204.921 626.87 212.528C619.046 219.917 609.918 224.481 599.486 226.22C596.009 235.131 590.249 241.759 582.208 246.106C574.384 250.453 565.473 252.626 555.476 252.626ZM553.194 238.282C557.541 238.282 561.561 237.195 565.256 235.022C568.951 232.849 571.885 229.697 574.058 225.568C565.147 223.612 557.106 220.135 549.934 215.136C542.762 210.137 537.22 205.03 533.308 199.814C530.265 200.466 528.744 203.4 528.744 208.616C528.744 215.788 530.809 222.525 534.938 228.828C539.067 235.131 545.153 238.282 553.194 238.282ZM576.666 215.788C577.101 214.267 577.318 212.528 577.318 210.572C577.535 208.399 577.644 206.769 577.644 205.682C577.427 195.902 576.123 186.231 573.732 176.668C571.341 167.105 568.951 157.325 566.56 147.328C562.648 154.065 558.084 161.346 552.868 169.17C547.652 176.994 542.762 183.297 538.198 188.078C541.675 193.946 546.783 199.488 553.52 204.704C560.257 209.92 567.973 213.615 576.666 215.788ZM669.767 252.626C658.9 252.626 650.098 250.344 643.361 245.78C636.841 241.433 632.168 235.891 629.343 229.154C626.518 222.199 625.105 215.136 625.105 207.964C625.105 201.661 625.974 196.771 627.713 193.294C629.452 189.817 631.625 187.317 634.233 185.796C636.841 184.057 639.232 182.753 641.405 181.884C643.796 181.015 645.534 180.037 646.621 178.95C652.054 173.299 657.596 166.779 663.247 159.39C669.115 151.783 674.114 143.416 678.243 134.288V131.028C678.243 122.335 679.656 116.249 682.481 112.772C685.524 109.077 689.001 107.23 692.913 107.23C695.521 107.23 697.368 107.882 698.455 109.186C699.759 110.49 700.52 112.011 700.737 113.75C700.737 115.054 700.411 116.575 699.759 118.314C699.324 120.053 699.107 122.443 699.107 125.486C699.107 132.006 700.628 139.504 703.671 147.98C706.931 156.239 710.082 165.041 713.125 174.386C716.385 183.731 718.015 193.294 718.015 203.074C718.015 205.682 717.906 208.073 717.689 210.246C717.472 212.419 717.146 214.484 716.711 216.44C723.448 214.701 730.077 211.007 736.597 205.356C743.117 199.488 749.311 190.903 755.179 179.602L759.091 182.536C754.962 194.924 748.985 204.921 741.161 212.528C733.337 219.917 724.209 224.481 713.777 226.22C710.3 235.131 704.54 241.759 696.499 246.106C688.675 250.453 679.764 252.626 669.767 252.626ZM667.485 238.282C671.832 238.282 675.852 237.195 679.547 235.022C683.242 232.849 686.176 229.697 688.349 225.568C679.438 223.612 671.397 220.135 664.225 215.136C657.053 210.137 651.511 205.03 647.599 199.814C644.556 200.466 643.035 203.4 643.035 208.616C643.035 215.788 645.1 222.525 649.229 228.828C653.358 235.131 659.444 238.282 667.485 238.282ZM690.957 215.788C691.392 214.267 691.609 212.528 691.609 210.572C691.826 208.399 691.935 206.769 691.935 205.682C691.718 195.902 690.414 186.231 688.023 176.668C685.632 167.105 683.242 157.325 680.851 147.328C676.939 154.065 672.375 161.346 667.159 169.17C661.943 176.994 657.053 183.297 652.489 188.078C655.966 193.946 661.074 199.488 667.811 204.704C674.548 209.92 682.264 213.615 690.957 215.788ZM771.67 246.432C761.673 246.432 754.283 243.389 749.502 237.304C744.721 231.436 742.33 224.155 742.33 215.462C742.33 204.161 744.286 193.62 748.198 183.84C752.327 174.06 757.435 165.258 763.52 157.434C769.823 149.393 776.56 142.547 783.732 136.896C790.904 131.245 797.641 126.899 803.944 123.856C810.464 120.813 815.789 119.292 819.918 119.292C821.005 119.292 822.526 119.509 824.482 119.944C826.438 120.379 827.851 121.465 828.72 123.204C829.372 122.769 830.024 122.443 830.676 122.226C831.545 122.009 832.415 121.9 833.284 121.9C839.369 121.9 843.281 123.639 845.02 127.116C846.976 130.593 847.954 134.397 847.954 138.526C847.954 142.221 846.867 146.459 844.694 151.24C842.738 156.021 840.673 161.346 838.5 167.214C836.544 172.865 835.566 179.385 835.566 186.774C835.566 190.686 836.653 193.729 838.826 195.902C841.217 197.858 843.933 198.836 846.976 198.836C855.452 198.836 862.407 196.989 867.84 193.294C873.273 189.382 877.729 184.275 881.206 177.972C884.683 171.669 887.617 164.823 890.008 157.434C892.399 149.827 894.681 142.329 896.854 134.94C894.898 132.549 893.92 129.833 893.92 126.79C893.92 122.009 894.898 117.879 896.854 114.402C898.81 110.707 900.983 107.882 903.374 105.926C905.982 103.753 908.047 102.666 909.568 102.666C913.045 102.666 915.11 103.97 915.762 106.578C916.414 109.186 916.74 111.251 916.74 112.772C916.74 113.859 916.088 115.815 914.784 118.64C913.697 121.465 913.154 123.421 913.154 124.508C913.154 126.681 914.893 128.963 918.37 131.354C922.065 133.527 926.194 136.135 930.758 139.178C935.322 142.221 939.343 146.133 942.82 150.914C946.515 155.478 948.362 161.237 948.362 168.192C948.362 174.712 947.058 181.232 944.45 187.752C941.842 194.272 939.234 200.357 936.626 206.008C934.018 211.659 932.714 216.549 932.714 220.678C932.714 223.938 933.475 226.111 934.996 227.198C936.735 228.067 938.691 228.502 940.864 228.502C945.863 228.502 951.079 226.981 956.512 223.938C962.163 220.678 967.596 216.549 972.812 211.55C978.028 206.551 982.701 201.335 986.83 195.902C990.959 190.251 994.002 185.144 995.958 180.58L1002.48 185.144C998.131 194.489 992.372 203.726 985.2 212.854C978.028 221.982 969.878 229.589 960.75 235.674C951.839 241.759 942.494 244.802 932.714 244.802C924.673 244.802 918.044 242.629 912.828 238.282C907.829 233.935 905.33 228.393 905.33 221.656C905.33 215.353 906.743 208.725 909.568 201.77C912.393 194.815 915.219 188.078 918.044 181.558C920.869 175.038 922.282 169.17 922.282 163.954C922.282 158.303 920.435 153.739 916.74 150.262C913.045 146.567 909.133 143.633 905.004 141.46C902.396 149.284 899.462 157.325 896.202 165.584C893.159 173.843 889.356 181.449 884.792 188.404C880.228 195.141 874.469 200.683 867.514 205.03C860.559 209.159 851.866 211.224 841.434 211.224C838.609 211.224 835.349 210.789 831.654 209.92C828.177 209.051 825.243 208.181 822.852 207.312C816.984 218.831 809.269 228.285 799.706 235.674C790.361 242.846 781.015 246.432 771.67 246.432ZM777.864 230.132C780.689 230.132 784.167 228.719 788.296 225.894C792.643 223.069 796.881 219.374 801.01 214.81C805.357 210.029 808.725 205.03 811.116 199.814C806.552 193.729 804.27 184.601 804.27 172.43C804.27 169.822 804.596 166.345 805.248 161.998C806.117 157.651 807.204 153.196 808.508 148.632C810.029 143.851 811.768 139.83 813.724 136.57C809.377 140.699 804.922 145.372 800.358 150.588C796.011 155.587 791.882 160.911 787.97 166.562C784.058 171.995 780.581 177.537 777.538 183.188C774.495 188.621 772.105 194.055 770.366 199.488C768.627 204.704 767.758 209.703 767.758 214.484C767.758 220.352 768.627 224.481 770.366 226.872C772.322 229.045 774.821 230.132 777.864 230.132ZM1015.22 245.78C1005.66 245.78 998.488 242.955 993.707 237.304C988.925 231.653 986.535 224.807 986.535 216.766C986.535 211.767 987.404 205.465 989.143 197.858C990.881 190.251 993.272 182.319 996.315 174.06C999.575 165.584 1003.27 157.651 1007.4 150.262C1011.53 142.873 1015.98 136.896 1020.76 132.332C1025.55 127.551 1030.33 125.16 1035.11 125.16C1037.72 125.16 1040 126.029 1041.95 127.768C1043.91 129.289 1044.89 131.571 1044.89 134.614C1044.89 137.439 1043.15 141.677 1039.67 147.328C1036.41 152.979 1032.5 159.499 1027.94 166.888C1023.59 174.277 1019.68 181.993 1016.2 190.034C1012.94 197.858 1011.31 205.356 1011.31 212.528C1011.31 219.483 1012.51 224.155 1014.9 226.546C1017.5 228.719 1021.2 229.806 1025.98 229.806C1033.37 229.806 1041.41 226.111 1050.1 218.722C1058.8 211.333 1067.82 198.401 1077.16 179.928L1082.05 185.144C1074.45 204.269 1064.77 219.157 1053.04 229.806C1041.3 240.455 1028.7 245.78 1015.22 245.78ZM1053.69 98.754C1049.56 98.754 1045.76 97.776 1042.28 95.82C1039.02 93.6467 1037.39 90.3867 1037.39 86.04C1037.39 80.824 1040.22 76.3687 1045.87 72.674C1051.52 68.9793 1057.39 67.132 1063.47 67.132C1067.38 67.132 1070.64 68.0013 1073.25 69.74C1076.08 71.4787 1077.49 74.63 1077.49 79.194C1077.49 83.758 1074.99 88.2133 1069.99 92.56C1064.99 96.6893 1059.56 98.754 1053.69 98.754ZM1106.55 250.344C1092.64 250.344 1081.88 246.541 1074.27 238.934C1066.89 231.545 1063.19 222.199 1063.19 210.898C1063.19 201.335 1065.58 191.229 1070.36 180.58C1075.36 169.713 1081.99 159.607 1090.25 150.262C1098.51 140.699 1107.64 132.984 1117.63 127.116C1127.63 121.248 1137.63 118.314 1147.62 118.314C1153.28 118.314 1158.6 119.835 1163.6 122.878C1168.81 125.703 1171.42 131.463 1171.42 140.156C1171.42 148.415 1169.03 156.13 1164.25 163.302C1159.47 170.474 1153.06 176.885 1145.02 182.536C1136.98 188.187 1128.06 192.859 1118.28 196.554C1108.72 200.031 1099.05 202.313 1089.27 203.4C1089.05 204.269 1088.84 205.247 1088.62 206.334C1088.62 207.203 1088.62 208.725 1088.62 210.898C1088.62 211.985 1088.73 213.941 1088.94 216.766C1089.38 219.374 1090.36 222.199 1091.88 225.242C1093.4 228.285 1095.9 230.893 1099.38 233.066C1102.85 235.239 1107.64 236.326 1113.72 236.326C1122.85 236.326 1131.98 233.827 1141.1 228.828C1150.45 223.612 1159.14 216.766 1167.18 208.29C1175.44 199.814 1182.29 190.36 1187.72 179.928L1194.24 185.144C1188.37 198.184 1180.77 209.594 1171.42 219.374C1162.29 229.154 1152.08 236.761 1140.78 242.194C1129.69 247.627 1118.28 250.344 1106.55 250.344ZM1092.86 191.338C1098.51 190.686 1104.81 188.73 1111.76 185.47C1118.72 182.21 1125.35 178.081 1131.65 173.082C1138.17 168.083 1143.5 162.65 1147.62 156.782C1151.75 150.697 1153.82 144.611 1153.82 138.526C1153.82 136.135 1153.38 134.505 1152.51 133.636C1151.65 132.767 1150.23 132.332 1148.28 132.332C1143.28 132.332 1138.06 134.179 1132.63 137.874C1127.2 141.351 1121.87 146.024 1116.65 151.892C1111.44 157.543 1106.77 163.845 1102.64 170.8C1098.51 177.755 1095.25 184.601 1092.86 191.338ZM1217.98 252.626C1207.12 252.626 1198.31 250.344 1191.58 245.78C1185.06 241.433 1180.38 235.891 1177.56 229.154C1174.73 222.199 1173.32 215.136 1173.32 207.964C1173.32 201.661 1174.19 196.771 1175.93 193.294C1177.67 189.817 1179.84 187.317 1182.45 185.796C1185.06 184.057 1187.45 182.753 1189.62 181.884C1192.01 181.015 1193.75 180.037 1194.84 178.95C1200.27 173.299 1205.81 166.779 1211.46 159.39C1217.33 151.783 1222.33 143.416 1226.46 134.288V131.028C1226.46 122.335 1227.87 116.249 1230.7 112.772C1233.74 109.077 1237.22 107.23 1241.13 107.23C1243.74 107.23 1245.58 107.882 1246.67 109.186C1247.97 110.49 1248.73 112.011 1248.95 113.75C1248.95 115.054 1248.63 116.575 1247.97 118.314C1247.54 120.053 1247.32 122.443 1247.32 125.486C1247.32 132.006 1248.84 139.504 1251.89 147.98C1255.15 156.239 1258.3 165.041 1261.34 174.386C1264.6 183.731 1266.23 193.294 1266.23 203.074C1266.23 205.682 1266.12 208.073 1265.9 210.246C1265.69 212.419 1265.36 214.484 1264.93 216.44C1271.66 214.701 1278.29 211.007 1284.81 205.356C1291.33 199.488 1297.53 190.903 1303.39 179.602L1307.31 182.536C1303.18 194.924 1297.2 204.921 1289.38 212.528C1281.55 219.917 1272.42 224.481 1261.99 226.22C1258.51 235.131 1252.76 241.759 1244.71 246.106C1236.89 250.453 1227.98 252.626 1217.98 252.626ZM1215.7 238.282C1220.05 238.282 1224.07 237.195 1227.76 235.022C1231.46 232.849 1234.39 229.697 1236.56 225.568C1227.65 223.612 1219.61 220.135 1212.44 215.136C1205.27 210.137 1199.73 205.03 1195.81 199.814C1192.77 200.466 1191.25 203.4 1191.25 208.616C1191.25 215.788 1193.31 222.525 1197.44 228.828C1201.57 235.131 1207.66 238.282 1215.7 238.282ZM1239.17 215.788C1239.61 214.267 1239.82 212.528 1239.82 210.572C1240.04 208.399 1240.15 206.769 1240.15 205.682C1239.93 195.902 1238.63 186.231 1236.24 176.668C1233.85 167.105 1231.46 157.325 1229.07 147.328C1225.15 154.065 1220.59 161.346 1215.37 169.17C1210.16 176.994 1205.27 183.297 1200.7 188.078C1204.18 193.946 1209.29 199.488 1216.03 204.704C1222.76 209.92 1230.48 213.615 1239.17 215.788Z" fill="#4F2B11" fill-opacity="0.4"/>
</svg>
