<svg width="748" height="730" viewBox="0 0 748 730" fill="none" xmlns="http://www.w3.org/2000/svg">
<path d="M597.617 580.697C594.769 583.491 591.881 586.266 588.956 589.018L588.271 588.29C586.81 589.664 585.341 591.033 583.861 592.396C582.382 593.759 580.898 595.112 579.409 596.456L580.079 597.198C577.097 599.889 574.097 602.541 571.079 605.152L570.425 604.396C567.387 607.024 564.332 609.612 561.26 612.159L561.899 612.929C558.811 615.49 555.706 618.009 552.586 620.488L551.964 619.705C548.815 622.206 545.65 624.666 542.47 627.083L543.075 627.879C539.88 630.307 536.669 632.693 533.445 635.037L532.857 634.228C529.606 636.591 526.341 638.91 523.063 641.186L523.633 642.007C520.331 644.299 517.016 646.547 513.689 648.751L513.136 647.917C509.792 650.132 506.435 652.302 503.067 654.428L503.601 655.274C500.196 657.422 496.78 659.524 493.354 661.581L492.839 660.724C489.406 662.784 485.962 664.799 482.509 666.767L483.004 667.636C479.503 669.632 475.991 671.581 472.471 673.483L471.996 672.603C468.467 674.509 464.929 676.367 461.384 678.178L461.838 679.069C458.257 680.897 454.668 682.677 451.073 684.409L450.639 683.508C447.019 685.251 443.392 686.944 439.759 688.588L440.172 689.499C436.515 691.154 432.853 692.759 429.187 694.312L428.796 693.392C425.093 694.961 421.385 696.48 417.674 697.946L418.042 698.876C414.301 700.354 410.557 701.78 406.812 703.153L406.468 702.214C402.703 703.594 398.937 704.921 395.17 706.194L395.49 707.141C391.672 708.432 387.853 709.668 384.035 710.849L383.739 709.894C379.907 711.08 376.077 712.21 372.248 713.284L372.518 714.247C368.644 715.334 364.773 716.364 360.905 717.338L360.661 716.368C356.763 717.349 352.868 718.273 348.979 719.138L349.196 720.114C345.273 720.986 341.355 721.8 337.444 722.554L337.254 721.573C333.31 722.333 329.374 723.034 325.446 723.674L325.607 724.66C321.63 725.308 317.662 725.894 313.705 726.418L313.573 725.427C309.598 725.953 305.633 726.416 301.68 726.816L301.781 727.811C297.776 728.217 293.783 728.558 289.805 728.835L289.736 727.837C285.726 728.115 281.731 728.328 277.753 728.474L277.789 729.474C273.77 729.622 269.766 729.702 265.782 729.715L265.779 728.715C261.769 728.728 257.778 728.673 253.808 728.548L253.776 729.548C249.747 729.422 245.738 729.224 241.754 728.956L241.821 727.959C237.817 727.689 233.837 727.348 229.884 726.935L229.78 727.93C225.782 727.512 221.811 727.021 217.868 726.457L218.01 725.467C214.036 724.898 210.092 724.254 206.179 723.534L205.998 724.518C202.038 723.79 198.11 722.986 194.216 722.105L194.437 721.129C190.529 720.245 186.656 719.283 182.819 718.243L182.557 719.208C178.681 718.157 174.841 717.027 171.04 715.817L171.344 714.864C167.525 713.648 163.746 712.352 160.009 710.975L159.663 711.914C155.892 710.524 152.165 709.053 148.481 707.499L148.87 706.578C145.186 705.024 141.548 703.388 137.957 701.668L137.525 702.57C133.907 700.838 130.337 699.022 126.818 697.122L127.293 696.242C123.778 694.345 120.314 692.363 116.902 690.297L116.384 691.153C112.957 689.077 109.584 686.917 106.265 684.672L106.826 683.844C103.525 681.61 100.279 679.292 97.0906 676.889L96.4887 677.688C93.2934 675.28 90.1556 672.787 87.0778 670.208L87.72 669.442C84.6693 666.886 81.6778 664.247 78.7479 661.523L78.067 662.256C75.1452 659.539 72.2842 656.74 69.4865 653.857L70.2042 653.16C68.8134 651.727 67.4382 650.273 66.0791 648.798C64.7199 647.323 63.3828 645.834 62.0678 644.331L61.3151 644.989C58.6697 641.966 56.1128 638.886 53.644 635.752L54.4296 635.133C51.954 631.991 49.5673 628.794 47.2692 625.545L46.4528 626.123C44.1342 622.845 41.9053 619.514 39.7658 616.133L40.6109 615.598C38.476 612.225 36.4304 608.801 34.4736 605.328L33.6024 605.819C31.6353 602.329 29.7576 598.79 27.9688 595.206L28.8636 594.759C27.0828 591.191 25.3905 587.576 23.7861 583.918L22.8703 584.32C21.2638 580.657 19.7451 576.951 18.3138 573.204L19.248 572.847C17.8273 569.128 16.4931 565.368 15.2448 561.57L14.2948 561.882C13.0468 558.084 11.8844 554.249 10.8073 550.378L11.7707 550.11C10.7031 546.273 9.71953 542.401 8.81951 538.495L7.84506 538.72C6.94934 534.833 6.13617 530.914 5.40505 526.965L6.38838 526.783C5.6647 522.874 5.02172 518.935 4.459 514.968L3.46888 515.108C2.90806 511.155 2.42677 507.175 2.02451 503.169L3.01953 503.069C2.62192 499.11 2.30184 495.126 2.05881 491.12L1.06068 491.18C0.819543 487.204 0.654024 483.206 0.563872 479.188L1.56364 479.166C1.47443 475.191 1.45913 471.197 1.51738 467.185L0.517484 467.17C0.57544 463.177 0.706037 459.166 0.908833 455.139L1.90758 455.19C2.10737 451.223 2.37752 447.241 2.71763 443.245L1.7212 443.16C2.05915 439.19 2.46599 435.207 2.94133 431.212L3.93433 431.33C4.40476 427.377 4.94249 423.413 5.54723 419.439L4.5586 419.289C5.1585 415.346 5.82417 411.395 6.55519 407.436L7.53856 407.618C8.25993 403.711 9.04516 399.797 9.89391 395.878L8.91655 395.666C9.76138 391.765 10.669 387.858 11.639 383.947L12.6096 384.188C13.5677 380.325 14.5868 376.459 15.6668 372.59L14.7036 372.321C15.7746 368.485 16.9051 364.646 18.0949 360.807L19.0501 361.103C20.2295 357.298 21.4673 353.491 22.7632 349.686L21.8166 349.363C23.1022 345.588 24.445 341.814 25.8445 338.041L26.7821 338.389C28.1652 334.661 29.6039 330.935 31.0981 327.213L30.17 326.84C31.6587 323.131 33.2022 319.426 34.8003 315.725L35.7183 316.122C37.2947 312.471 38.9242 308.826 40.6067 305.186L39.6991 304.767C41.3731 301.146 43.0993 297.531 44.8777 293.923L45.7746 294.365C47.5387 290.787 49.3542 287.215 51.2208 283.652L50.3349 283.188C52.1828 279.66 54.0806 276.141 56.0281 272.632L56.9025 273.117C58.8371 269.631 60.8209 266.154 62.8536 262.688L61.991 262.182C64.0097 258.74 66.0767 255.308 68.1916 251.888L69.0421 252.414C71.1358 249.028 73.2766 245.654 75.4642 242.292L74.6261 241.747C76.8084 238.393 79.0372 235.052 81.3123 231.725L82.1377 232.29C84.3814 229.009 86.6702 225.741 89.004 222.487L88.1915 221.904C90.521 218.657 92.8951 215.424 95.3137 212.206L96.1131 212.807C98.5063 209.623 100.943 206.455 103.423 203.302L102.637 202.684C105.105 199.547 107.616 196.426 110.17 193.323L110.942 193.958C113.478 190.876 116.056 187.811 118.676 184.764L117.917 184.112C120.516 181.089 123.156 178.085 125.837 175.098L126.581 175.766C129.25 172.794 131.959 169.84 134.709 166.905L133.979 166.221C136.704 163.314 139.468 160.425 142.273 157.556L142.988 158.255C145.777 155.402 148.605 152.568 151.473 149.755L150.773 149.041C153.622 146.246 156.509 143.472 159.434 140.72L160.12 141.448C161.58 140.074 163.05 138.705 164.529 137.342C166.008 135.979 167.492 134.626 168.981 133.282L168.311 132.54C171.293 129.849 174.293 127.197 177.311 124.586L177.965 125.342C181.003 122.714 184.058 120.126 187.13 117.578L186.491 116.809C189.579 114.248 192.684 111.728 195.804 109.25L196.426 110.033C199.575 107.532 202.74 105.072 205.92 102.655L205.315 101.859C208.51 99.4305 211.721 97.0444 214.945 94.7008L215.533 95.5098C218.784 93.1471 222.049 90.8278 225.327 88.5519L224.757 87.7305C228.059 85.4386 231.374 83.1907 234.702 80.9868L235.254 81.8205C238.598 79.6057 241.955 77.4354 245.323 75.3099L244.79 74.4642C248.194 72.3161 251.61 70.2136 255.036 68.1568L255.551 69.0142C258.984 66.9536 262.428 64.9389 265.881 62.9703L265.386 62.1016C268.887 60.1055 272.399 58.1566 275.919 56.2551L276.394 57.135C279.923 55.2288 283.461 53.3704 287.006 51.5599L286.552 50.6693C290.133 48.8405 293.722 47.0604 297.317 45.3291L297.751 46.2301C301.371 44.4869 304.998 42.7933 308.631 41.1496L308.218 40.2385C311.875 38.5837 315.537 36.9793 319.204 35.4253L319.594 36.346C323.297 34.7763 327.005 33.2583 330.716 31.792L330.348 30.8619C334.089 29.3838 337.833 27.9581 341.578 26.5851L341.922 27.524C345.687 26.1439 349.453 24.8172 353.22 23.5438L352.9 22.5965C356.718 21.3056 360.537 20.0695 364.355 18.8883L364.651 19.8437C368.483 18.6582 372.314 17.5281 376.142 16.4537L375.872 15.4909C379.746 14.4038 383.617 13.3734 387.485 12.4L387.729 13.3697C391.627 12.3885 395.522 11.4653 399.411 10.6003L399.194 9.62416C403.117 8.75145 407.035 7.93781 410.946 7.18341L411.136 8.16531C415.08 7.40451 419.017 6.70413 422.944 6.06433L422.783 5.07735C426.76 4.42953 430.728 3.84365 434.686 3.31988L434.817 4.31124C438.793 3.78501 442.757 3.32166 446.71 2.92136L446.609 1.92644C450.614 1.52076 454.607 1.17967 458.585 0.903316L458.654 1.90091C462.664 1.62235 466.659 1.40977 470.637 1.26338L470.601 0.264054C474.621 0.116123 478.624 0.0355717 482.608 0.0226L482.611 1.0226C486.621 1.00954 490.612 1.06513 494.582 1.18956L494.614 0.190056C498.643 0.316364 502.652 0.513407 506.636 0.781391L506.569 1.77913C510.573 2.04838 514.553 2.38944 518.507 2.80252L518.61 1.80792C522.608 2.22555 526.579 2.71659 530.522 3.28126L530.38 4.27115C534.354 4.84018 538.298 5.48417 542.212 6.20336L542.392 5.21984C546.352 5.94749 550.28 6.75188 554.174 7.63328L553.953 8.6086C557.861 9.49302 561.734 10.4552 565.571 11.4953L565.833 10.5301C569.71 11.5809 573.549 12.7111 577.35 13.9209L577.047 14.8738C580.865 16.0893 584.645 17.3855 588.382 18.7625L588.727 17.8242C592.498 19.2134 596.226 20.6848 599.909 22.2384L599.52 23.1598C603.204 24.7137 606.842 26.3502 610.434 28.0696L610.865 27.1676C614.483 28.8997 618.053 30.7156 621.573 32.6156L621.097 33.4956C624.612 35.393 628.077 37.3746 631.488 39.4405L632.006 38.5851C635.433 40.6603 638.806 42.8204 642.125 45.0656L641.564 45.8938C644.865 48.1274 648.111 50.4455 651.299 52.8484L651.901 52.0498C655.097 54.4581 658.234 56.9511 661.312 59.5294L660.67 60.2959C663.721 62.8514 666.712 65.4909 669.642 68.2146L670.323 67.4822C673.245 70.1983 676.106 72.9979 678.904 75.8812L678.186 76.5775C679.577 78.0109 680.952 79.465 682.311 80.94C683.67 82.4149 685.007 83.904 686.322 85.4071L687.075 84.7486C689.72 87.7722 692.277 90.8519 694.746 93.9856L693.961 94.6044C696.436 97.7468 698.823 100.944 701.121 104.193L701.937 103.615C704.256 106.893 706.485 110.224 708.624 113.605L707.779 114.139C709.914 117.513 711.96 120.937 713.917 124.409L714.788 123.918C716.755 127.409 718.632 130.948 720.421 134.532L719.526 134.979C721.307 138.547 723 142.162 724.604 145.819L725.52 145.418C727.126 149.081 728.645 152.787 730.076 156.534L729.142 156.89C730.563 160.61 731.897 164.37 733.145 168.168L734.095 167.856C735.343 171.653 736.506 175.489 737.583 179.36L736.619 179.628C737.687 183.465 738.671 187.337 739.571 191.243L740.545 191.018C741.441 194.905 742.254 198.824 742.985 202.773L742.002 202.955C742.725 206.864 743.368 210.803 743.931 214.77L744.921 214.63C745.482 218.583 745.963 222.563 746.366 226.569L745.371 226.669C745.768 230.628 746.088 234.612 746.331 238.618L747.329 238.558C747.571 242.534 747.736 246.532 747.826 250.55L746.826 250.572C746.916 254.547 746.931 258.541 746.873 262.553L747.873 262.568C747.815 266.561 747.684 270.572 747.481 274.599L746.483 274.548C746.283 278.515 746.013 282.497 745.672 286.493L746.669 286.578C746.331 290.548 745.924 294.531 745.449 298.526L744.456 298.407C743.985 302.36 743.448 306.325 742.843 310.299L743.831 310.449C743.232 314.391 742.566 318.343 741.835 322.302L740.852 322.12C740.13 326.027 739.345 329.94 738.496 333.86L739.474 334.072C738.629 337.973 737.721 341.88 736.751 345.791L735.78 345.55C734.822 349.412 733.803 353.279 732.723 357.148L733.686 357.417C732.616 361.253 731.485 365.092 730.295 368.931L729.34 368.635C728.161 372.44 726.923 376.247 725.627 380.052L726.573 380.375C725.288 384.15 723.945 387.924 722.546 391.697L721.608 391.349C720.225 395.077 718.786 398.803 717.292 402.525L718.22 402.898C716.731 406.607 715.188 410.312 713.59 414.013L712.672 413.616C711.095 417.266 709.466 420.912 707.783 424.551L708.691 424.971C707.017 428.592 705.291 432.207 703.512 435.815L702.615 435.373C700.851 438.951 699.036 442.523 697.169 446.086L698.055 446.55C696.207 450.077 694.309 453.596 692.362 457.106L691.488 456.621C689.553 460.107 687.569 463.584 685.536 467.05L686.399 467.556C684.38 470.998 682.313 474.43 680.199 477.85L679.348 477.324C677.254 480.71 675.114 484.084 672.926 487.446L673.764 487.991C671.582 491.344 669.353 494.685 667.078 498.013L666.252 497.448C664.009 500.729 661.72 503.997 659.386 507.251L660.199 507.833C657.869 511.081 655.495 514.314 653.076 517.532L652.277 516.931C649.884 520.115 647.447 523.283 644.967 526.436L645.753 527.054C643.285 530.191 640.774 533.311 638.22 536.415L637.448 535.78C634.912 538.862 632.334 541.927 629.714 544.974L630.473 545.626C627.874 548.648 625.234 551.653 622.553 554.64L621.809 553.972C619.14 556.944 616.431 559.898 613.681 562.833L614.411 563.516C611.686 566.424 608.922 569.313 606.118 572.182L605.402 571.482C602.613 574.336 599.785 577.17 596.917 579.983L597.617 580.697Z" stroke="white" stroke-width="2" stroke-dasharray="12 12"/>
</svg>
