<svg width="22" height="28" viewBox="0 0 22 28" fill="none" xmlns="http://www.w3.org/2000/svg">
<path d="M19 6.00008H16.3333C16.3333 3.05341 13.9467 0.666748 11 0.666748C8.05334 0.666748 5.66668 3.05341 5.66668 6.00008H3.00001C1.53334 6.00008 0.333344 7.20008 0.333344 8.66675V24.6667C0.333344 26.1334 1.53334 27.3334 3.00001 27.3334H19C20.4667 27.3334 21.6667 26.1334 21.6667 24.6667V8.66675C21.6667 7.20008 20.4667 6.00008 19 6.00008ZM8.33334 11.3334C8.33334 12.0667 7.73334 12.6667 7.00001 12.6667C6.26668 12.6667 5.66668 12.0667 5.66668 11.3334V8.66675H8.33334V11.3334ZM11 3.33341C12.4667 3.33341 13.6667 4.53341 13.6667 6.00008H8.33334C8.33334 4.53341 9.53334 3.33341 11 3.33341ZM16.3333 11.3334C16.3333 12.0667 15.7333 12.6667 15 12.6667C14.2667 12.6667 13.6667 12.0667 13.6667 11.3334V8.66675H16.3333V11.3334Z" fill="white" fill-opacity="0.87"/>
</svg>
