<svg width="21" height="20" viewBox="0 0 21 20" fill="none" xmlns="http://www.w3.org/2000/svg">
<path d="M14.5403 0.928711C12.8003 0.928711 11.1303 1.73871 10.0403 3.01871C8.95028 1.73871 7.28028 0.928711 5.54028 0.928711C2.46028 0.928711 0.0402832 3.34871 0.0402832 6.42871C0.0402832 10.2087 3.44028 13.2887 8.59028 17.9687L10.0403 19.2787L11.4903 17.9587C16.6403 13.2887 20.0403 10.2087 20.0403 6.42871C20.0403 3.34871 17.6203 0.928711 14.5403 0.928711ZM10.1403 16.4787L10.0403 16.5787L9.94028 16.4787C5.18028 12.1687 2.04028 9.31871 2.04028 6.42871C2.04028 4.42871 3.54028 2.92871 5.54028 2.92871C7.08028 2.92871 8.58028 3.91871 9.11028 5.28871H10.9803C11.5003 3.91871 13.0003 2.92871 14.5403 2.92871C16.5403 2.92871 18.0403 4.42871 18.0403 6.42871C18.0403 9.31871 14.9003 12.1687 10.1403 16.4787Z" fill="white" fill-opacity="0.87"/>
</svg>
