<svg width="83" height="66" viewBox="0 0 83 66" fill="none" xmlns="http://www.w3.org/2000/svg">
<path d="M79.7557 13.4609C80.0839 14.014 80.3889 14.5833 80.6696 15.1684L80.2188 15.3847C80.3553 15.6691 80.4858 15.9572 80.6104 16.2492C80.735 16.5412 80.8527 16.8349 80.9636 17.1301L81.4317 16.9543C81.6598 17.5619 81.8598 18.176 82.032 18.7957L81.5503 18.9296C81.7197 19.5392 81.8618 20.1546 81.977 20.7747L82.4685 20.6833C82.5865 21.3183 82.6769 21.9581 82.7403 22.6016L82.2427 22.6507C82.3045 23.278 82.3401 23.9094 82.35 24.5439L82.85 24.536C82.86 25.1794 82.8442 25.8256 82.8031 26.4738L82.3041 26.4421C82.2642 27.0706 82.2001 27.7012 82.1121 28.3333L82.6073 28.4023C82.5189 29.0373 82.4069 29.6733 82.2719 30.3096L81.7828 30.2058C81.6521 30.8216 81.4994 31.4379 81.3251 32.054L81.8062 32.1902C81.6317 32.8067 81.4361 33.4227 81.2197 34.0374L80.748 33.8714C80.5386 34.4664 80.3093 35.0603 80.0606 35.6526L80.5216 35.8462C80.2735 36.4371 80.0064 37.0261 79.7208 37.6125L79.2713 37.3935C78.9946 37.9616 78.7002 38.5274 78.3884 39.0903L78.8258 39.3326C78.5156 39.8926 78.1885 40.4496 77.845 41.003L77.4202 40.7393C77.0866 41.2766 76.7372 41.8106 76.3723 42.3407L76.7841 42.6242C76.4208 43.152 76.0424 43.6758 75.6493 44.195L75.2507 43.8932C74.8682 44.3984 74.4716 44.8994 74.061 45.3956L74.4463 45.7143C74.0376 46.2083 73.6153 46.6975 73.1799 47.1815L72.8082 46.8471C72.3837 47.3189 71.9465 47.7857 71.4968 48.247L71.8548 48.596C71.407 49.0554 70.947 49.5094 70.4751 49.9575L70.1308 49.5949C69.6701 50.0325 69.1977 50.4645 68.7142 50.8904L69.0447 51.2656C68.5629 51.6899 68.0702 52.1082 67.5667 52.52L67.2502 52.133C66.7578 52.5358 66.2549 52.9325 65.7419 53.3226L66.0446 53.7206C65.5333 54.1094 65.0121 54.4917 64.4811 54.867L64.1924 54.4588C63.6724 54.8264 63.143 55.1874 62.6043 55.5413L62.8789 55.9592C62.3419 56.3121 61.7958 56.658 61.2409 56.9966L60.9804 56.5698C60.4369 56.9014 59.8849 57.226 59.3245 57.5432L59.5708 57.9783C59.0119 58.2947 58.4447 58.6037 57.8695 58.9051L57.6375 58.4622C57.0731 58.7579 56.501 59.0462 55.9213 59.3267L56.1391 59.7767C55.5606 60.0566 54.9747 60.3288 54.3815 60.5931L54.1781 60.1363C53.8852 60.2668 53.5905 60.3953 53.294 60.5218C52.9975 60.6483 52.7008 60.7722 52.4039 60.8934L52.5928 61.3563C51.9916 61.6017 51.3897 61.8363 50.7874 62.0603L50.6131 61.5916C50.0095 61.816 49.4055 62.0296 48.8015 62.2324L48.9607 62.7064C48.3451 62.9131 47.7296 63.1087 47.1144 63.2934L46.9707 62.8145C46.3539 62.9996 45.7376 63.1735 45.1222 63.3364L45.2501 63.8197C44.6217 63.986 43.994 64.1409 43.3677 64.2845L43.256 63.7971C42.6277 63.9411 42.0008 64.0735 41.3756 64.1945L41.4706 64.6854C40.8322 64.809 40.1955 64.9208 39.561 65.0209L39.4831 64.527C38.8465 64.6275 38.2122 64.716 37.5807 64.7928L37.641 65.2891C36.9953 65.3676 36.3524 65.4339 35.7128 65.488L35.6706 64.9898C35.0285 65.0442 34.3898 65.0863 33.755 65.1162L33.7786 65.6157C33.1286 65.6463 32.4825 65.6642 31.841 65.6696L31.8368 65.1696C31.1925 65.1751 30.553 65.1677 29.9187 65.1477L29.9029 65.6475C29.2522 65.6269 28.6068 65.5932 27.9674 65.5465L28.0039 65.0478C27.3615 65.0008 26.7254 64.9406 26.096 64.8671L26.0381 65.3637C25.3912 65.2882 24.7513 65.199 24.1189 65.0961L24.1992 64.6026C23.5639 64.4992 22.9366 64.382 22.3179 64.251L22.2144 64.7402C21.5771 64.6053 20.9487 64.456 20.3297 64.2924L20.4575 63.809C19.8353 63.6446 19.2232 63.4656 18.6216 63.2723L18.4686 63.7483C17.8477 63.5487 17.2377 63.334 16.6394 63.1043L16.8186 62.6375C16.2189 62.4072 15.6314 62.1617 15.057 61.9013L14.8505 62.3566C14.257 62.0875 13.6769 61.8025 13.111 61.5019L13.3456 61.0603C12.7802 60.7599 12.2296 60.4437 11.6946 60.1119L11.4311 60.5368C10.8783 60.194 10.3417 59.8347 9.82205 59.4592L10.1149 59.0539C9.59772 58.6801 9.09801 58.29 8.61672 57.884L8.29429 58.2661C7.79788 57.8473 7.32042 57.4115 6.86292 56.9591L7.2145 56.6036C6.7633 56.1574 6.33214 55.6948 5.92199 55.2161L5.5423 55.5414C5.12153 55.0503 4.72222 54.5424 4.34543 54.0179L4.75151 53.7262C4.38355 53.2139 4.03762 52.6856 3.71473 52.1414L3.28473 52.3966C2.95652 51.8434 2.65153 51.2741 2.37078 50.689L2.82157 50.4727C2.68516 50.1884 2.55459 49.9002 2.42999 49.6082C2.3054 49.3162 2.1877 49.0226 2.07684 48.7273L1.60875 48.9031C1.38058 48.2955 1.18065 47.6814 1.00841 47.0618L1.49015 46.9279C1.3207 46.3182 1.17864 45.7029 1.06345 45.0828L0.571862 45.1741C0.453907 44.5391 0.363511 43.8994 0.30011 43.2558L0.797701 43.2068C0.7359 42.5794 0.700291 41.9481 0.690369 41.3136L0.19043 41.3214C0.180371 40.6781 0.196175 40.0319 0.237295 39.3837L0.736293 39.4153C0.77616 38.7869 0.840329 38.1562 0.928332 37.5241L0.433108 37.4552C0.521519 36.8202 0.633486 36.1841 0.768501 35.5478L1.25761 35.6516C1.38828 35.0358 1.54099 34.4195 1.71532 33.8034L1.23421 33.6673C1.40868 33.0507 1.60434 32.4347 1.82074 31.82L2.29237 31.9861C2.50182 31.3911 2.73111 30.7971 2.97983 30.2048L2.51882 30.0112C2.76695 29.4203 3.03402 28.8313 3.31962 28.245L3.76914 28.4639C4.04581 27.8959 4.34022 27.3301 4.65201 26.7671L4.21462 26.5249C4.52482 25.9648 4.85188 25.4078 5.19543 24.8544L5.62022 25.1182C5.9538 24.5808 6.30323 24.0468 6.66815 23.5167L6.2563 23.2332C6.6196 22.7055 6.99797 22.1817 7.39107 21.6624L7.78971 21.9642C8.17218 21.4591 8.56884 20.9581 8.9794 20.4619L8.59416 20.1431C9.00286 19.6491 9.42508 19.1599 9.86052 18.6759L10.2322 19.0104C10.6567 18.5386 11.0939 18.0718 11.5436 17.6104L11.1856 17.2614C11.6334 16.802 12.0934 16.348 12.5653 15.8999L12.9096 16.2625C13.3704 15.8249 13.8427 15.393 14.3262 14.9671L13.9958 14.5919C14.4775 14.1676 14.9702 13.7493 15.4737 13.3374L15.7903 13.7244C16.2826 13.3216 16.7855 12.9249 17.2985 12.5349L16.9958 12.1369C17.5071 11.7481 18.0284 11.3658 18.5593 10.9904L18.848 11.3987C19.368 11.0311 19.8974 10.6701 20.4361 10.3161L20.1615 9.89827C20.6986 9.54539 21.2446 9.19946 21.7996 8.86084L22.06 9.28765C22.6035 8.95601 23.1555 8.63144 23.7159 8.31427L23.4696 7.87913C24.0285 7.56277 24.5957 7.25373 25.1709 6.95236L25.4029 7.39525C25.9673 7.09956 26.5394 6.8113 27.1191 6.53079L26.9013 6.08071C27.4798 5.80082 28.0657 5.52861 28.6589 5.26439L28.8623 5.72113C29.1552 5.59066 29.45 5.46214 29.7464 5.33563C30.0429 5.20912 30.3397 5.08527 30.6365 4.96408L30.4476 4.50116C31.0488 4.25574 31.6507 4.02111 32.2531 3.79717L32.4273 4.26583C33.0309 4.0414 33.6349 3.82783 34.2389 3.62502L34.0797 3.15103C34.6953 2.94433 35.3108 2.7487 35.926 2.56407L36.0697 3.04297C36.6865 2.85788 37.3028 2.68394 37.9182 2.52106L37.7903 2.0377C38.4188 1.8714 39.0464 1.71652 39.6727 1.57299L39.7844 2.06035C40.4127 1.91638 41.0396 1.78393 41.6649 1.6629L41.5698 1.17201C42.2082 1.04843 42.8449 0.936632 43.4794 0.836533L43.5573 1.33042C44.1939 1.22999 44.8282 1.14145 45.4597 1.06469L45.3994 0.568347C46.0451 0.489868 46.688 0.423586 47.3276 0.369398L47.3698 0.867615C48.0119 0.813218 48.6506 0.771133 49.2854 0.741241L49.2618 0.241795C49.9119 0.211186 50.5579 0.193234 51.1994 0.187827L51.2036 0.687808C51.8479 0.682378 52.4874 0.68973 53.1217 0.709736L53.1375 0.209982C53.7882 0.230505 54.4336 0.264208 55.073 0.310968L55.0365 0.809636C55.6789 0.856608 56.315 0.916891 56.9444 0.990338L57.0023 0.493708C57.6492 0.569199 58.2892 0.658463 58.9215 0.761357L58.8412 1.25487C59.4765 1.35822 60.1038 1.47547 60.7225 1.60644L60.826 1.11729C61.4633 1.25217 62.0917 1.40148 62.7107 1.56506L62.5829 2.04847C63.2051 2.21288 63.8173 2.39184 64.4188 2.58516L64.5718 2.10914C65.1927 2.3087 65.8028 2.52344 66.401 2.75318L66.2218 3.21995C66.8215 3.45023 67.409 3.69571 67.9834 3.95618L68.1899 3.5008C68.7834 3.76992 69.3635 4.0549 69.9294 4.35558L69.6948 4.79711C70.2602 5.09756 70.8108 5.41378 71.3458 5.74554L71.6093 5.32061C72.1621 5.66341 72.6987 6.0227 73.2184 6.39827L72.9255 6.8035C73.4427 7.17734 73.9424 7.56742 74.4237 7.97348L74.7461 7.59133C75.2425 8.01016 75.72 8.4459 76.1775 8.89832L75.8259 9.25384C76.2771 9.70004 76.7083 10.1626 77.1184 10.6413L77.4981 10.316C77.9189 10.8071 78.3182 11.3151 78.695 11.8396L78.2889 12.1313C78.6569 12.6435 79.0028 13.1718 79.3257 13.716L79.7557 13.4609Z" stroke="white" stroke-opacity="0.87" stroke-dasharray="2 2"/>
</svg>
