<svg width="19" height="18" viewBox="0 0 19 18" fill="none" xmlns="http://www.w3.org/2000/svg">
<path d="M13.4295 11H12.6329L12.3506 10.73C13.3387 9.59 13.9336 8.11 13.9336 6.5C13.9336 2.91 10.9995 0 7.37969 0C3.75989 0 0.825745 2.91 0.825745 6.5C0.825745 10.09 3.75989 13 7.37969 13C9.00305 13 10.4953 12.41 11.6448 11.43L11.917 11.71V12.5L16.9585 17.49L18.4609 16L13.4295 11ZM7.37969 11C4.86902 11 2.84234 8.99 2.84234 6.5C2.84234 4.01 4.86902 2 7.37969 2C9.89035 2 11.917 4.01 11.917 6.5C11.917 8.99 9.89035 11 7.37969 11Z" fill="white"/>
</svg>
